<svg width="16" height="16" viewBox="0 0 1024 1024" fill="none" xmlns="http://www.w3.org/2000/svg">
  <path fill-rule="evenodd" clip-rule="evenodd" d="M512 0C229.2 0 0 229.2 0 512C0 739.2 146.4 936.8 349.6 1002.4C376 1008.8 385.6 991.2 385.6 976.8V877.6C236.8 905.6 207.2 812.8 207.2 812.8C182.4 756.8 144.8 740.8 144.8 740.8C89.6 708 149.6 708.8 149.6 708.8C211.2 714.4 243.2 772.8 243.2 772.8C296.8 861.6 378.4 835.2 414.4 819.2C421.6 781.6 437.6 756.8 456 742.4C332 726.4 203.2 682.4 203.2 486.4C203.2 432 220 388 248.8 356C243.2 341.6 225.6 288.8 254.4 216C254.4 216 297.6 203.2 384 272C423.2 258.4 468.8 252.8 512 252.8C555.2 252.8 600.8 258.4 640 272C726.4 203.2 769.6 216 769.6 216C798.4 288.8 780.8 341.6 775.2 356C804 388 820.8 432 820.8 486.4C820.8 682.4 692 726.4 568 742.4C588.8 760 607.2 794.4 607.2 846.4V976.8C607.2 991.2 616.8 1008.8 643.2 1002.4C846.4 936.8 992 739.2 992 512C992 229.2 764.8 0 512 0Z" fill="white"/>
</svg>
