<svg xmlns="http://www.w3.org/2000/svg" viewBox="0 0 128 128">
  <path fill="#D42F2F" d="M106.2 0c-12.7 3.7-44.3 8.8-60.8 12.6-6 1.4-17 4.4-20 5.7-2 1-5 2.4-7 3.3v31.6c12.7-3.7 44.4-8.8 60.9-12.6 6-1.4 17-4.4 20-5.7 2-1 5-2.4 7-3.3V0zM18.4 67.7v31.6c12.7-3.7 44.3-8.8 60.8-12.6 6-1.4 17-4.4 20-5.7 2-1 5-2.4 7-3.3V63.9c-2.2.8-4.8 2-7 2.7-12.6 3.7-44.3 8.8-60.8 12.6-6 1.4-17 4.4-20 5.7-2 1-5 2.4-7 3.3zM18.4 128v-31.6c12.7-3.7 44.3-8.8 60.8-12.6 6-1.4 17-4.4 20-5.7 2-1 5-2.4 7-3.3v31.6c-2.2.8-4.8 2-7 2.7-12.7 3.7-44.3 8.8-60.8 12.6-6 1.4-17 4.4-20 5.7-2 1-5 2.4-7 3.3z"></path>
</svg>
