<svg xmlns="http://www.w3.org/2000/svg" viewBox="0 0 256 256">
  <path fill="#6DB33F" d="M128 0l-111.9 64v128l111.9 64 111.9-64v-128zm-4.9 34.8h9.9v58.3h-9.9zm39.7 141.1c.1.1.3.3.3.6v8.7c0 .5-.2.8-.6.8h-69c-.4 0-.7-.3-.7-.8v-8.7c0-.3.1-.5.3-.6l34.2-57c.2-.3.6-.5.9-.5s.7.2.9.5zm17.5-36.6c-1.5-1.8-3.9-2.9-6.4-2.9h-17.2l5.8 9.5h10.9c.9 0 1.7.5 2.1 1.3.4.7.4 1.7-.1 2.5l-20.6 34.2c-.4.6-1.1 1-1.8 1s-1.4-.4-1.8-1l-12.5-20.8v-16.1l10.7-17.6h-41.3l5.8 9.6h18.6l-15.7 25.8-9.3-15.2h-17.2c-2.5 0-4.8 1.1-6.4 2.9s-2.1 4.2-1.7 6.5l5 8.6h68.5l10.8-18.2c1.5-2.4 1.5-5.5 0-8zm-53.5-65.5h9.9v58.3h-9.9zm39.7 141.1c.1.1.3.3.3.6v8.7c0 .5-.2.8-.6.8h-69c-.4 0-.7-.3-.7-.8v-8.7c0-.3.1-.5.3-.6l34.2-57c.2-.3.6-.5.9-.5s.7.2.9.5zm17.5-36.6c-1.5-1.8-3.9-2.9-6.4-2.9h-17.2l5.8 9.5h10.9c.9 0 1.7.5 2.1 1.3.4.7.4 1.7-.1 2.5l-20.6 34.2c-.4.6-1.1 1-1.8 1s-1.4-.4-1.8-1l-12.5-20.8v-16.1l10.7-17.6h-41.3l5.8 9.6h18.6l-15.7 25.8-9.3-15.2h-17.2c-2.5 0-4.8 1.1-6.4 2.9s-2.1 4.2-1.7 6.5l5 8.6h68.5l10.8-18.2c1.5-2.4 1.5-5.5 0-8z"></path>
</svg>
