<svg xmlns="http://www.w3.org/2000/svg" viewBox="0 0 256 256">
  <path fill="#1572B6" d="M128 0L0 32v192l128 32 128-32V32z"/>
  <path fill="#33A9DC" d="M128 0L0 32v192l128 32 128-32V32z"/>
  <path fill="#FFF" d="M127.7 43.2L40.7 56.8 44.4 69.7 118.6 57.3l2.3-4.1zM131.7 43.2L240.6 56.8 236.6 69.7 152.4 57.3l-2.4-4.1zM124.3 66.5L67.6 78.3 64.8 87.7 114.6 80.2l5.7-13.7zM131.3 66.5L187 78.3 189.3 87.7 139.5 80.2l-8.2-13.7zM134.6 97.1l-33.6 2.5-8.8 21.7 33.6-2.5 8.8-21.7zM121.3 97.1l-33.6 2.5-8.8 21.7 33.6-2.5 8.8-21.7zM153.2 124.1L89.6 143.5 84.7 125.7 142 106.1l11.2 18zM124.4 124.1l63.6-19.4 4.9-17.8-63.6 19.4-4.9 17.8zM138.2 160.4L91.6 176.4l-8.1 15.5 63.4 12.9 8.1-15.5zM121.2 160.4l-45.9 14.5-8.1 15.5 63.4 12.9 8.1-15.5z"/>
</svg>
