<svg xmlns="http://www.w3.org/2000/svg" viewBox="0 0 128 128" width="100" height="100">
  <path fill="#E44D26" d="M19 114.5L7.8 0h112.5L109 114.5 63.6 128z"></path>
  <path fill="#F16529" d="M64 117.7l37.3-10.3L109 11.5H64z"></path>
  <path fill="#EBEBEB" d="M64 52.6H43.8l1.2 13.4H64v13.4H33.6l-3.5-39.4H64V27.5H23.4l.9 10.2 4.2 47.5H64v-10.1z"></path>
  <path fill="#EBEBEB" d="M64 92.1h-.1L46.4 87.2l-1-11.1H32l2.3 26.5L64 105z"></path>
  <path fill="#FFF" d="M63.8 52.6V66h20.2l-1.9 19.9L64 92.1v13.1l28.8-7.9 3.5-39.4.3-3.5.8-10.3H63.8z"></path>
  <path fill="#FFF" d="M64 66v13.4h18.4l1.2-13.4z"></path>
</svg>
