<svg xmlns="http://www.w3.org/2000/svg" viewBox="0 0 128 128" width="100" height="100">
  <path fill="#F7D35E" d="M92.3 42.8l-2.4-2.2c-2.2-2-5.3-3.1-8.5-3.1-4.4 0-8.7 1.7-11.8 4.7l-4.3 3.5c-4.7 3.8-8.2 9.3-8.2 15.5v3.5c0 6.4 3.4 12 8.5 15.4l3.5 2.9c2.2 1.8 4.8 2.8 7.6 2.8 3.8 0 7.6-1.4 10.5-4l4.1-3.2c3.8-2.9 6.4-7.3 6.4-12.2v-3.5c0-5.7-2.9-11.1-7.6-14.5zM65.5 83.3l-6.8 5.6c-2.6 2.1-5.8 3.3-9.2 3.3-3.5 0-6.8-1.2-9.5-3.3l-6.4-5.3c-3.7-3.1-6.2-7.7-6.2-12.8v-4c0-4.6 2.6-8.8 6.4-11.4l7.3-5.9c2.8-2.3 6.4-3.6 10.1-3.6 2.9 0 5.8 0.9 8.2 2.6l5.7 4.7c3.5 3 5.9 7.3 5.9 12.1v2.8c0 5.8-3 11.4-7.6 14.4zM64.3 70.2c-2.1-1.8-4.8-2.7-7.5-2.7-2.7 0-5.3 0.9-7.4 2.5l-5.5 4.5c-1.6 1.3-2.6 3.2-2.6 5.3v3.5c0 2.3 1.1 4.4 2.8 5.7 1.7 1.3 3.7 1.9 5.8 1.9 2.4 0 4.8-0.8 6.7-2.2l5.5-4.5c2.3-1.9 3.7-4.7 3.7-7.7v-2.8c0-3.2-1.6-6.2-4.2-8.2z"/>
  <path fill="#5A5B5C" d="M64 14.6c-4.5 0-8.9 1.6-12.3 4.6L47.5 23c-5.5 4.4-9.2 10.7-9.2 17.8v3.5c0 7 3.7 13.4 9.4 17.8l3.7 3c2.8 2.2 6.2 3.5 9.8 3.5 3.5 0 6.9-1.3 9.5-3.7l4.4-3.5c3.8-2.8 6.4-7.1 6.4-11.8v-3.5c0-4.6-2.8-9.2-6.8-12.1l-4.6-3.6c-2.7-2.1-5.9-3.2-9.1-3.2-3.8 0-7.5 1.3-10.5 3.6L59.5 27c-3.8 2.9-6.2 7.3-6.2 12.2v3.5c0 5.8 2.8 11.4 7.6 14.5l4.1 3.2c3.8 2.9 8.6 4.5 13.4 4.5 5.6 0 11-1.7 15.3-4.9l4.4-3.5c3.3-2.6 5.4-6.4 5.4-10.7v-3.5c0-4.7-2.6-9.2-6.8-12.1L75.2 29c-3.7-3-8.4-4.6-13.2-4.6z"/>
</svg>
