<svg xmlns="http://www.w3.org/2000/svg" viewBox="0 0 128 128">
  <path fill="#8993BE" d="M64 0C28.6 0 0 28.7 0 64c0 35.3 28.6 64 64 64 35.3 0 64-28.7 64-64C128 28.7 99.4 0 64 0zm.3 122C30 122 6 97.7 6 64.5 6 31.3 30.1 7 63.5 7 97 7 121 31.3 121 64.5 121 97.7 97.1 122 64.3 122z"></path>
  <path fill="#8993BE" d="M48 61.4c-.8 0-1.4.4-1.6 1l-3.1 16.4c-.1.7-.5 1-.9 1H32.6l-1.6 8.5c-.1.5-.4.8-.8.8h-6c-.4 0-.7-.2-.7-.7l8.4-43.6c.1-.5.4-.7.8-.7h7c6.1-.1 9.6 2.7 8.9 7.6-.5 3.5-2.7 5.4-6.5 6.5zm-7.7-.2h4.7c1.9 0 3.2-.4 3.8-2 .6-1.5-.1-3.5-3-3.4h-4.3l-2.4 12.7h3c2.9 0 4.4-.5 5-2.7.5-1.9 0-3.9-3.6-3.9h-3.2l-2.4 12.8c-.1.5-.4.7-.8.7H28l1.7-8.9h5.5c2.7 0 4.3-.8 4.9-2.5.5-1.8-.1-3.4-3.3-3.4h-3.7l2.4-12.6c.1-.4.4-.6.8-.6zM69.8 71c-3.6-2.3-6.7-2.7-9.7-3.4-2.7-.7-4.4-1.5-4.2-2.9.2-1.5 2.1-2.3 5-1.7 1.6.3 3.2.8 4.7 1.4.2.1.5 0 .6-.2l1.5-6.3c.1-.3 0-.6-.2-.7-1.5-.7-3.1-1.1-4.8-1.3h-.1c-4.8-.6-8.6 1.9-9.1 6.2-.5 3.2 1 6.6 6.6 8 2.7.7 5.9 1 7.3 2.7 1.1 1.4.6 3.8-2.7 3.7-1.7 0-3.3-.2-4.7-.5h-.3c-.4 0-.6.2-.7.5l-1.6 6.5c-.1.4 0 .6.2.7 1.9.8 4 .9 5.8 1 5.6 0 8.6-2.2 9.1-6.5.5-3.5-.7-6.4-6.2-8.8zm14.4-9.2c.1-.5-.2-.8-.7-.8h-6.2c-.5 0-.8.2-1 .8l-3.2 16.4c-.1.7-.5 1-.9 1h-5.5c-.5 0-.8-.2-1-.8l3.1-16.4c.1-.5-.2-.8-.7-.8h-6.1c-.5 0-.8.2-1 .8l-3.1 16.4c-.1.7-.5 1-.9 1h-6.4c-.4 0-.7-.2-.7-.7L65.2 53.7c.1-.5.4-.7.8-.7h6c.4 0 .7.2.7.7l-.9 4.7c.8-.6 2-1.1 3.4-1.3 4.6-.4 7.7 1.7 7.1 6.3-.6 3.7-2.7 5.6-6.5 6.6h-3.4l-2.5 13c-.1.5.1.8.7.8h6c.4 0 .7-.2.7-.7l2.5-13c-.2.1.1-.7.1-.7 3.4 0 5.5-.9 6.2-3.7l.1-.5c.7-3.6-.2-5.7-3.2-7.4z"></path>
</svg>
