<svg xmlns="http://www.w3.org/2000/svg" viewBox="0 0 128 128" width="100" height="100">
  <path fill="#306998" d="M98.095 19.637H29.905c-2.701 0-4.949 2.199-4.949 4.895v79.832c0 2.696 2.248 4.895 4.949 4.895h68.19c2.701 0 4.949-2.199 4.949-4.895V24.532c0-2.696-2.248-4.895-4.949-4.895z"/>
  <path fill="#FFD43B" d="M84.972 35.346c0-2.763-2.238-5-5-5h-4.85c-2.762 0-5 2.238-5 5v8.07c0 2.763 2.238 5 5 5h4.85c2.762 0 5-2.238 5-5v-8.07zM53.982 35.346c0-2.763-2.238-5-5-5h-4.85c-2.762 0-5 2.238-5 5v8.07c0 2.763 2.238 5 5 5h4.85c2.762 0 5-2.238 5-5v-8.07z"/>
  <path fill="#FFD43B" d="M75.639 48.423c-1.048 1.238-2.722 2.055-4.639 2.055h-4.853c-2.763 0-5-2.238-5-5v-8.07c0-2.763 2.238-5 5-5h4.853c1.917 0 3.591.817 4.639 2.055-1.042 1.238-2.722 2.055-4.639 2.055zM32.414 48.423c1.048 1.238 2.722 2.055 4.639 2.055h4.85c2.762 0 5-2.238 5-5v-8.07c0-2.763-2.238-5-5-5h-4.85c-1.917 0-3.591.817-4.639 2.055 1.042 1.238 2.722 2.055 4.639 2.055zM64.502 69.355c-1.174 2.5-3.782 4.239-6.452 4.239h-4.73c-2.681 0-5.322-1.739-6.437-4.239-1.136 2.5-3.725 4.239-6.437 4.239h-3.54c-2.768 0-5-2.232-5-5v-7.977c0-2.768 2.232-5 5-5h4.73c2.682 0 5.278 1.739 6.452 4.239 1.169-2.5 3.782-4.239 6.437-4.239h4.73c2.767 0 5 2.232 5 5v7.977c0 2.768-2.233 5-5 5h-4.73c-2.662 0-5.278-1.739-6.452-4.239z"/>
</svg>
