<svg xmlns="http://www.w3.org/2000/svg" viewBox="0 0 24 24" fill="currentColor" width="24" height="24">
  <path d="M12 2C6.5 2 2 6.5 2 12s4.5 10 10 10 10-4.5 10-10S17.5 2 12 2zm0 18c-4.4 0-8-3.6-8-8s3.6-8 8-8 8 3.6 8 8-3.6 8-8 8zm.2-6.3l-1.6-.8-1.4.7.6-1.6-1.4-.8 1.7-1.3-.8-1.5 1.8.9 1.6-.7-.1 1.8 1.3.6-.9 1.6zm-4.7-.6l-.8-1.8-1.6.8.8-1.8-1.8-.9 1.8-1.2L7.6 9l1.8.9.8-1.8 1.8.8-.7 1.6zm6.3-2.8l-1.3-.7-.6 1.7 1.6.9-1.8 1.2.8 1.7 1.8-.9 1.4.7-.6-1.7 1.8-1 .7-1.7-1.7-.8zm-6.7-1.4l-1.3.7-.8-1.8 1.8-.8 1.8.9.7-1.7zm4.7 2.4l-.8 1.8-1.6-.8 1.3-1.6.8 1.7zm-.6-4.6l.8 1.8 1.7-.9-.7-1.7-1.8.8.6 1.8zm-3.4-2.4l.8 1.8-1.8.9-.6-1.8 1.8-.9z"/>
</svg>
